<svg width="112" height="112" viewBox="0 0 112 112" fill="none" xmlns="http://www.w3.org/2000/svg">
<path d="M89.1062 10.0925C90.1196 11.1289 90.683 11.6794 91.7988 13.3704C92.6148 14.607 92.7353 18.2872 92.7353 18.2872L91.7988 22.6188C91.7988 22.6188 90.814 24.1843 90.0427 25.0772C89.2183 26.0316 87.7014 27.3015 87.7014 27.3015C87.7014 27.3015 85.921 29.2916 84.4235 29.2916H46.0251C45.2022 29.2916 44.7314 29.1674 43.9179 29.2916C41.9951 29.5852 40.8297 30.2543 39.5864 31.7501C38.9193 32.5525 38.1331 33.1966 37.5962 34.0914C36.9177 35.2222 36.9158 35.6769 36.4255 36.9011C35.9421 38.1082 35.8953 38.8798 35.8402 40.179C35.7679 41.8844 35.9073 42.8841 36.4255 44.5105C37.1421 46.7592 38.2657 47.7055 39.5864 49.6615C45.8825 58.9866 60.3074 69.6801 60.3074 69.6801H33.85C33.85 69.6801 30.8028 68.7956 29.0502 67.8071C27.19 66.7578 26.2888 65.9024 24.7479 64.4397L24.7187 64.4121C23.0966 62.8724 22.2196 61.9371 20.9725 60.0806C19.6615 58.1288 19.1956 56.8611 18.28 54.6954C17.1539 52.0322 16.581 50.4905 15.9386 47.6713C15.2835 44.7963 14.9713 43.1275 15.0021 40.179C15.0304 37.4571 15.9386 33.272 15.9386 33.272C15.9386 33.272 17.0302 28.8553 18.28 26.2479C19.7598 23.1606 20.8958 21.5247 23.1968 18.9896C25.5102 16.4411 27.1227 15.2793 29.9868 13.3704C32.7437 11.5328 34.385 10.5747 37.4791 9.39005C40.1304 8.37497 41.7332 8.13851 44.5032 7.51696C59.7148 4.1038 84.4235 7.51696 84.4235 7.51696C84.4235 7.51696 88.0928 9.05606 89.1062 10.0925Z" fill="url(#paint0_linear_4_4)"/>
<path d="M70.4299 45.9428C64.7318 44.8274 55.5622 45.9428 55.5622 45.9428L83.8927 76.3805L64.3423 97.3357H51.9331L64.3423 81.7656H21.8466C19.3961 81.7656 18.2198 83.5056 16.8127 85.5118C15.24 87.7541 14.8395 89.5715 15.0566 92.3017C15.2934 95.278 16.6396 96.7508 18.3345 99.2088C20.0233 101.658 20.9949 103.279 23.6026 104.711C26.1022 106.083 27.8923 106.233 30.7438 106.233H70.4299C72.7918 106.233 74.0626 105.515 76.2833 104.711C81.3635 102.87 84.0073 100.987 87.9901 97.3357C90.9326 94.6378 92.719 93.0417 94.5459 89.4921C96.9299 84.86 97.0392 81.59 97.0043 76.3805C96.9706 71.3506 96.5333 68.3579 94.5459 63.7371C92.7522 59.5668 91.3142 57.2293 87.9901 54.1375C84.8669 51.2327 82.5393 50.2118 78.6246 48.5183C75.5458 47.1863 73.722 46.5872 70.4299 45.9428Z" fill="#1C377A"/>
<defs>
<linearGradient id="paint0_linear_4_4" x1="92.7353" y1="16.5312" x2="15.0021" y2="48.1396" gradientUnits="userSpaceOnUse">
<stop stop-color="#4487FC"/>
<stop stop-color="#4685FC"/>
<stop offset="1" stop-color="#2940B1"/>
</linearGradient>
</defs>
</svg>
